<svg width="80" height="27" viewBox="0 0 80 27" fill="none" xmlns="http://www.w3.org/2000/svg">
<path d="M6.95183 19.9247C7.52038 19.9247 7.98556 19.8816 8.34737 19.7954C8.7264 19.6921 9.02791 19.5628 9.25188 19.4078C9.47586 19.2355 9.63092 19.0374 9.71706 18.8134C9.8032 18.5894 9.84628 18.3396 9.84628 18.0639C9.84628 17.4782 9.57061 16.9958 9.01929 16.6167C8.46797 16.2205 7.52038 15.7983 6.17654 15.3504C5.59076 15.1437 5.00497 14.9111 4.41919 14.6526C3.83341 14.377 3.30794 14.041 2.84276 13.6447C2.37758 13.2313 1.99854 12.7402 1.70565 12.1717C1.41276 11.5859 1.26632 10.8795 1.26632 10.0525C1.26632 9.22555 1.42138 8.48471 1.7315 7.83002C2.04162 7.15809 2.48095 6.58954 3.0495 6.12436C3.61805 5.65918 4.30721 5.30599 5.11696 5.06479C5.92672 4.80636 6.83985 4.67714 7.85635 4.67714C9.06236 4.67714 10.1047 4.80636 10.9834 5.06479C11.862 5.32322 12.5857 5.6075 13.1542 5.91762L11.9913 9.09633C11.4916 8.8379 10.9317 8.61393 10.3115 8.42441C9.70845 8.21766 8.97622 8.11429 8.11478 8.11429C7.14996 8.11429 6.4522 8.25212 6.02148 8.52778C5.60798 8.78622 5.40124 9.19109 5.40124 9.74242C5.40124 10.0698 5.47877 10.3454 5.63383 10.5694C5.78889 10.7934 6.00425 11.0001 6.27991 11.1896C6.5728 11.3619 6.90015 11.5256 7.26195 11.6807C7.64099 11.8185 8.05448 11.9649 8.50243 12.12C9.43278 12.4646 10.2425 12.8091 10.9317 13.1537C11.6208 13.4811 12.1894 13.8687 12.6373 14.3167C13.1025 14.7646 13.4471 15.2901 13.6711 15.8931C13.8951 16.4961 14.007 17.2283 14.007 18.0898C14.007 19.761 13.4213 21.0618 12.2497 21.9921C11.0781 22.9052 9.31218 23.3618 6.95183 23.3618C6.15931 23.3618 5.44431 23.3101 4.80684 23.2067C4.16938 23.1206 3.60083 23.0086 3.10119 22.8708C2.61878 22.733 2.19668 22.5865 1.83487 22.4314C1.49029 22.2764 1.1974 22.1299 0.9562 21.9921L2.0933 18.7876C2.6274 19.0804 3.28209 19.3475 4.05739 19.5887C4.84992 19.8127 5.81473 19.9247 6.95183 19.9247ZM29.8877 5.09063V8.52778H24.4865V23H20.4549V8.52778H15.0537V5.09063H29.8877ZM42.35 23C42.1605 22.3798 41.9451 21.7423 41.7039 21.0876C41.48 20.4329 41.256 19.7782 41.032 19.1235H34.0543C33.8304 19.7782 33.5978 20.4329 33.3566 21.0876C33.1326 21.7423 32.9258 22.3798 32.7363 23H28.5497C29.2216 21.0704 29.8591 19.2872 30.4621 17.6504C31.0651 16.0137 31.6509 14.4717 32.2195 13.0245C32.8052 11.5773 33.3738 10.2076 33.9251 8.91543C34.4937 7.60604 35.0794 6.33111 35.6825 5.09063H39.5331C40.1189 6.33111 40.696 7.60604 41.2646 8.91543C41.8331 10.2076 42.4017 11.5773 42.9702 13.0245C43.556 14.4717 44.1504 16.0137 44.7534 17.6504C45.3564 19.2872 45.9939 21.0704 46.6658 23H42.35ZM37.5173 9.14802C37.4312 9.40645 37.302 9.75964 37.1297 10.2076C36.9574 10.6555 36.7593 11.1724 36.5353 11.7582C36.3113 12.344 36.0615 12.9901 35.7858 13.6964C35.5274 14.4028 35.2603 15.1437 34.9847 15.919H40.0758C39.8001 15.1437 39.5331 14.4028 39.2747 13.6964C39.0162 12.9901 38.7664 12.344 38.5252 11.7582C38.3012 11.1724 38.1031 10.6555 37.9308 10.2076C37.7585 9.75964 37.6207 9.40645 37.5173 9.14802ZM54.2302 4.88389C56.9179 4.88389 58.9768 5.36629 60.4068 6.33111C61.8368 7.27869 62.5518 8.76037 62.5518 10.7761C62.5518 12.0339 62.2589 13.059 61.6731 13.8515C61.1045 14.6268 60.2775 15.2384 59.1921 15.6864C59.5539 16.1343 59.933 16.6512 60.3292 17.237C60.7255 17.8055 61.1131 18.4085 61.4922 19.046C61.8884 19.6662 62.2675 20.3209 62.6293 21.0101C62.9911 21.682 63.327 22.3453 63.6372 23H59.1146C58.7873 22.4142 58.4513 21.8198 58.1067 21.2168C57.7794 20.6138 57.4348 20.028 57.073 19.4595C56.7284 18.8909 56.3838 18.3568 56.0393 17.8572C55.6947 17.3403 55.3501 16.8752 55.0055 16.4617H53.0156V23H48.984V5.34906C49.8627 5.17678 50.7672 5.05617 51.6976 4.98726C52.6452 4.91834 53.4894 4.88389 54.2302 4.88389ZM54.4628 8.32104C54.1699 8.32104 53.9029 8.32965 53.6617 8.34688C53.4377 8.36411 53.2223 8.38134 53.0156 8.39857V13.2571H54.1527C55.6688 13.2571 56.7542 13.0676 57.4089 12.6885C58.0636 12.3095 58.391 11.6634 58.391 10.7503C58.391 9.87163 58.055 9.25139 57.3831 8.88959C56.7284 8.51055 55.755 8.32104 54.4628 8.32104ZM79.2523 5.09063V8.52778H73.8511V23H69.8196V8.52778H64.4183V5.09063H79.2523Z" fill="#5E71A6"/>
<path d="M42.3444 23C42.1549 22.3798 41.9396 21.7423 41.6984 21.0876C41.4744 20.4329 41.2504 19.7782 41.0264 19.1235H34.0488C33.8248 19.7782 33.5922 20.4329 33.351 21.0876C33.127 21.7423 32.9203 22.3798 32.7308 23H28.5442C29.2161 21.0704 29.8535 19.2872 30.4566 17.6504C31.0596 16.0137 31.6453 14.4717 32.2139 13.0245C32.7997 11.5773 33.3682 10.2076 33.9195 8.91543C34.4881 7.60604 35.0739 6.33111 35.6769 5.09063H39.5275C40.1133 6.33111 40.6905 7.60604 41.259 8.91543C41.8276 10.2076 42.3961 11.5773 42.9647 13.0245C43.5505 14.4717 44.1449 16.0137 44.7479 17.6504C45.3509 19.2872 45.9883 21.0704 46.6603 23H42.3444ZM37.5118 9.14802C37.4256 9.40645 37.2964 9.75964 37.1241 10.2076C36.9518 10.6555 36.7537 11.1724 36.5297 11.7582C36.3057 12.344 36.0559 12.9901 35.7803 13.6964C35.5218 14.4028 35.2548 15.1437 34.9791 15.919H40.0702C39.7946 15.1437 39.5275 14.4028 39.2691 13.6964C39.0107 12.9901 38.7608 12.344 38.5196 11.7582C38.2957 11.1724 38.0975 10.6555 37.9253 10.2076C37.753 9.75964 37.6151 9.40645 37.5118 9.14802Z" fill="#FCBC4A"/>
<path d="M54.3 4.74097C56.9705 4.74097 59.0207 5.21476 60.4507 6.16235C61.8807 7.0927 62.5957 8.62607 62.5957 10.7624C62.5957 12.916 61.8721 14.4753 60.4248 15.4401C58.9776 16.3877 56.9102 16.8614 54.2225 16.8614H53.0286V23H48.9246V5.20615C49.8033 5.03386 50.7336 4.91326 51.7157 4.84434C52.6977 4.77542 53.5592 4.74097 54.3 4.74097ZM54.5584 8.42247C54.2655 8.42247 53.9727 8.43108 53.6798 8.44831C53.4041 8.46554 53.2353 8.48277 53.0286 8.5V13.1036H54.2225C55.618 13.1036 56.669 12.9141 57.3753 12.5351C57.8571 12.143 58.3571 11.7703 58.3571 10.7366C58.3571 10.237 58.1895 9.82735 58 9.5C57.8277 9.17265 57.7623 9.08653 57.3753 8.87371C56.8753 8.59871 56.6541 8.6168 56 8.5C55.5176 8.41386 55.1442 8.42247 54.5584 8.42247Z" fill="#FCBC4A"/>
</svg>
